<svg xmlns="http://www.w3.org/2000/svg" viewBox="0 0 388.71 100.17"><defs><style>.a,.c{fill:#231f20;}.a,.b,.c{stroke:#231f20;stroke-miterlimit:10;}.a,.b{stroke-width:0.88px;}.b{fill:none;}.c{stroke-width:1.03px;}.d{fill:#fff;}.e,.f,.g{fill:#283994;}.f{font-size:27.51px;}.f,.i,.j{font-family:BellMT, Bell MT;}.g{font-size:50.78px;font-family:BellMTBold, Bell MT;}.h{font-weight:700;}.i{font-size:40.2px;letter-spacing:0em;}.j{font-size:31.74px;fill:#273c93;}</style></defs><title>gillette</title><path class="a" d="M45.6,77s-7.71-2.64-8.29-6a11.55,11.55,0,0,1,.81-9.25s-.81.15-3.74,2.13a8.68,8.68,0,0,1-2.55,1.36c-2.47.71-4.73.19-7.22,0A21.33,21.33,0,0,0,13.6,68a10.06,10.06,0,0,0-3.88,4c-1.24,2.39-.57,6.17,1.85,7.63a8.28,8.28,0,0,0,2.83.95c5.26,1,10.67.1,16,.44-.83,1.65-.55,4.08-.37,5.85a61.29,61.29,0,0,0,1.9,9.6q.63,2.35,1.35,4.67.41,1.32.84,2.63c.12.38,1.08,2.4.91,2.67a36.73,36.73,0,0,1,2.53-3.56c1.23-1.52,2.84-2.31,4.43-3.35a26.41,26.41,0,0,0,3.39-2.72c2.45-2.27,4.6-5.17,5.06-8.56C50.44,88.22,51.76,79.78,45.6,77Zm1,10a7.25,7.25,0,0,1-.53,2.4,4.26,4.26,0,0,1-3.73,3,4.26,4.26,0,0,1-3.72-3,7.25,7.25,0,0,1-.53-2.4c0-.14,0-.28,0-.42,0-3.19,1.91-5.77,4.27-5.77s4.27,2.59,4.27,5.77C46.65,86.67,46.64,86.81,46.64,86.95Z" transform="translate(-8.67 -49.59)"/><path class="a" d="M46.65,86.53a1.66,1.66,0,0,0-.37-1,4.24,4.24,0,0,0-7.8,0,1.66,1.66,0,0,0-.37,1c0-3.19,1.91-5.77,4.27-5.77S46.65,83.34,46.65,86.53Z" transform="translate(-8.67 -49.59)"/><path class="a" d="M38.11,86.53a1.66,1.66,0,0,1,.37-1,4.3,4.3,0,0,0-.36,1.47C38.11,86.81,38.11,86.67,38.11,86.53Z" transform="translate(-8.67 -49.59)"/><path class="a" d="M46.28,85.48c-1.4-1.79-6.39-1.79-7.8,0a4.24,4.24,0,0,1,7.8,0Z" transform="translate(-8.67 -49.59)"/><path class="a" d="M46.65,86.53c0,.14,0,.28,0,.42a4.3,4.3,0,0,0-.36-1.47A1.66,1.66,0,0,1,46.65,86.53Z" transform="translate(-8.67 -49.59)"/><path class="b" d="M46.1,89.35a4.26,4.26,0,0,1-3.73,3,4.26,4.26,0,0,1-3.73-3S42.28,84.53,46.1,89.35Z" transform="translate(-8.67 -49.59)"/><path class="a" d="M111.13,54.61c-1.54-3.89-7.34-4.26-7.34-4.26A10.41,10.41,0,0,0,93,53.8c-5.28,5.21-8.29,6.53-8.29,6.53-.81,1.17-.73,6.83-.73,6.83.59,4.18-.88,5.65-.88,5.65-.07.51-7.85,11.58-7.85,11.58a36.25,36.25,0,0,0-4.38,11C70,100.05,71,106.16,76,108.11c1.79.69,2.67,2.49,4.09,3.68,1.6,1.33,3.53,2.29,4.83,4a32.81,32.81,0,0,1,2.08,3l.88-6.6,2.79-28.92c1.39-6,7.78-8.66,7.78-8.66,5.72-1.32,9.83-6.68,9.83-6.68C116.27,60.92,111.13,54.61,111.13,54.61ZM85.94,86.95a7.25,7.25,0,0,1-.53,2.4,3.83,3.83,0,0,1-7.45,0,7.25,7.25,0,0,1-.53-2.4c0-.14,0-.28,0-.42,0-3.19,1.91-5.77,4.27-5.77s4.27,2.59,4.27,5.77C85.95,86.67,85.95,86.81,85.94,86.95Z" transform="translate(-8.67 -49.59)"/><path class="a" d="M85.95,86.53a1.66,1.66,0,0,0-.37-1,4.24,4.24,0,0,0-7.8,0,1.66,1.66,0,0,0-.37,1c0-3.19,1.91-5.77,4.27-5.77S85.95,83.34,85.95,86.53Z" transform="translate(-8.67 -49.59)"/><path class="a" d="M77.41,86.53a1.66,1.66,0,0,1,.37-1,4.3,4.3,0,0,0-.36,1.47C77.42,86.81,77.41,86.67,77.41,86.53Z" transform="translate(-8.67 -49.59)"/><path class="a" d="M85.58,85.48c-1.4-1.79-6.39-1.79-7.8,0a4.24,4.24,0,0,1,7.8,0Z" transform="translate(-8.67 -49.59)"/><path class="a" d="M85.95,86.53c0,.14,0,.28,0,.42a4.3,4.3,0,0,0-.36-1.47A1.66,1.66,0,0,1,85.95,86.53Z" transform="translate(-8.67 -49.59)"/><path class="b" d="M85.41,89.35a3.83,3.83,0,0,1-7.45,0S81.58,84.53,85.41,89.35Z" transform="translate(-8.67 -49.59)"/><path class="c" d="M76.69,116.82c-1.27-4.34-5.09-4.26-8-3.49-3.65,1-6.93,3.45-10.63,1,0,0-6.46-4.21-8.91,2.06A17.05,17.05,0,0,0,50,129.24c2.51,4.49,7,5.82,11,6.21a24.35,24.35,0,0,0,10.15-.69A9.44,9.44,0,0,0,77,129.68C78.71,125.75,77.85,120.8,76.69,116.82Zm-20.11,7.29c-2,0-3.66-1.18-3.66-2.63s1.64-2.63,3.66-2.63,3.66,1.18,3.66,2.63S58.6,124.11,56.58,124.11Zm13,0c-2,0-3.66-1.18-3.66-2.63s1.64-2.63,3.66-2.63,3.66,1.18,3.66,2.63S71.6,124.11,69.58,124.11Z" transform="translate(-8.67 -49.59)"/><path class="d" d="M46.65,87.24a4.33,4.33,0,0,1-.54,2.11c-3.74-3.53-7.3-.15-7.45,0h0a4.33,4.33,0,0,1-.54-2.11c0-.1,0-.2,0-.29a4.3,4.3,0,0,1,.36-1.47,4.24,4.24,0,0,1,7.8,0,4.3,4.3,0,0,1,.36,1.47C46.64,87,46.65,87.14,46.65,87.24Z" transform="translate(-8.67 -49.59)"/><path class="e" d="M46.1,89.35a4.26,4.26,0,0,1-3.73,3,4.26,4.26,0,0,1-3.73-3S42.28,84.53,46.1,89.35Z" transform="translate(-8.67 -49.59)"/><path class="d" d="M85.95,87.24a4.33,4.33,0,0,1-.54,2.11c-3.74-3.53-7.3-.15-7.45,0h0a4.33,4.33,0,0,1-.54-2.11c0-.1,0-.2,0-.29a4.3,4.3,0,0,1,.36-1.47,4.24,4.24,0,0,1,7.8,0,4.3,4.3,0,0,1,.36,1.47C85.95,87,85.95,87.14,85.95,87.24Z" transform="translate(-8.67 -49.59)"/><path class="e" d="M85.41,89.35a3.83,3.83,0,0,1-7.45,0S81.58,84.53,85.41,89.35Z" transform="translate(-8.67 -49.59)"/><text class="f" transform="translate(116.02 30.51)">LA FERME</text><text class="g" transform="translate(111.54 67.92)"><tspan class="h">GILLETTE</tspan><tspan class="i" x="267.12" y="0"> </tspan></text><text class="j" transform="translate(317.52 91.7)">INC</text></svg>