<?xml version="1.0" encoding="utf-8"?>
<!-- Generator: Adobe Illustrator 20.1.0, SVG Export Plug-In . SVG Version: 6.00 Build 0)  -->
<svg version="1.1" id="Layer_1" xmlns="http://www.w3.org/2000/svg" xmlns:xlink="http://www.w3.org/1999/xlink" x="0px" y="0px"
	 width="200px" height="200px" viewBox="0 0 200 200" enable-background="new 0 0 200 200" xml:space="preserve">
<path fill="#4A859A" d="M63.8,159.5l-21.2-19.4c-3.1-2.8-3.3-7.6-0.5-10.7l86.2-94.2c2.8-3.1,7.6-3.3,10.7-0.5l21.2,19.4
	c3.1,2.8,3.3,7.6,0.5,10.7L74.5,159C71.7,162.1,66.8,162.3,63.8,159.5z"/>
<path fill="#4A859A" d="M47.7,134.5L69,154c2.3,2.1,1.4,6-1.7,6.8l-25,6.4c-2.7,0.7-5.3-1.6-4.9-4.4l3.7-25.9
	C41.5,133.7,45.3,132.3,47.7,134.5z"/>
<path fill="#CECECE" d="M71.1,147.6l-1.2-1.1c-1-0.9-1.1-2.5-0.2-3.5l78.2-85.5c0.9-1,2.5-1.1,3.5-0.2l1.2,1.1
	c1,0.9,1.1,2.5,0.2,3.5l-78.2,85.5C73.7,148.5,72.1,148.5,71.1,147.6z"/>
<path fill="#CECECE" d="M63,139.5l-1.2-1.1c-1-0.9-1.1-2.5-0.2-3.5l78.2-85.5c0.9-1,2.5-1.1,3.5-0.2l1.2,1.1c1,0.9,1.1,2.5,0.2,3.5
	l-78.2,85.5C65.7,140.3,64.1,140.4,63,139.5z"/>
<path fill="#CECECE" d="M54.3,132.3l-1.2-1.1c-1-0.9-1.1-2.5-0.2-3.5l78.2-85.5c0.9-1,2.5-1.1,3.5-0.2l1.2,1.1
	c1,0.9,1.1,2.5,0.2,3.5l-78.2,85.5C57,133.2,55.4,133.2,54.3,132.3z"/>
</svg>
