<?xml version="1.0" encoding="utf-8"?>
<!-- Generator: Adobe Illustrator 20.1.0, SVG Export Plug-In . SVG Version: 6.00 Build 0)  -->
<svg version="1.1" id="Layer_1" xmlns="http://www.w3.org/2000/svg" xmlns:xlink="http://www.w3.org/1999/xlink" x="0px" y="0px"
	 width="200px" height="200px" viewBox="0 0 200 200" enable-background="new 0 0 200 200" xml:space="preserve">
<path fill="#4A859A" d="M168.2,160.8H26.8c-6.6,0-12-5.4-12-12v-78c0-6.6,5.4-12,12-12h141.3c6.6,0,12,5.4,12,12v78
	C180.2,155.4,174.8,160.8,168.2,160.8z"/>
<circle fill="#CECECE" cx="97.7" cy="109.8" r="36"/>
<circle fill="#4A859A" cx="97.7" cy="109.8" r="29.6"/>
<path fill="#4A859A" d="M160.2,63.2h-16.7c-0.8,0-1.4-0.6-1.4-1.4v-9.2c0-0.8,0.6-1.4,1.4-1.4h16.7c0.8,0,1.4,0.6,1.4,1.4v9.2
	C161.6,62.6,161,63.2,160.2,63.2z"/>
<path fill="none" stroke="#CECECE" stroke-width="1.0416" stroke-miterlimit="10" d="M165.6,156.1H30c-6.1,0-11.1-5-11.1-11.1V75.3
	c0-6.1,5-11.1,11.1-11.1h135.6c6.1,0,11.1,5,11.1,11.1V145C176.8,151.1,171.7,156.1,165.6,156.1z"/>
<path fill="#4A859A" d="M124.9,60.7H67.7c-1.6,0-3-1.3-3-3V47.1c0-1.6,1.3-3,3-3h57.1c1.6,0,3,1.3,3,3v10.6
	C127.8,59.3,126.5,60.7,124.9,60.7z"/>
</svg>
