<?xml version="1.0" encoding="utf-8"?>
<!-- Generator: Adobe Illustrator 20.1.0, SVG Export Plug-In . SVG Version: 6.00 Build 0)  -->
<svg version="1.1" id="Layer_1" xmlns="http://www.w3.org/2000/svg" xmlns:xlink="http://www.w3.org/1999/xlink" x="0px" y="0px"
	 width="200px" height="200px" viewBox="0 0 200 200" enable-background="new 0 0 200 200" xml:space="preserve">
<path fill="#4A859A" d="M141.1,189.4H61.3c-7.2,0-13.1-5.9-13.1-13.1V20.9c0-7.2,5.9-13.1,13.1-13.1h79.7c7.2,0,13.1,5.9,13.1,13.1
	v155.4C154.1,183.5,148.3,189.4,141.1,189.4z"/>
<path fill="#F7F7F7" d="M115.1,19.2H87.4c-0.8,0-1.5-0.7-1.5-1.5v0c0-0.8,0.7-1.5,1.5-1.5h27.7c0.8,0,1.5,0.7,1.5,1.5v0
	C116.6,18.5,115.9,19.2,115.1,19.2z"/>
<path fill="#CECECE" d="M135.7,167.7h-69c-6.5,0-11.9-5.4-11.9-11.9V37.8c0-6.5,5.4-11.9,11.9-11.9h69c6.5,0,11.9,5.4,11.9,11.9
	v117.9C147.6,162.3,142.2,167.7,135.7,167.7z"/>
<path fill="#F7F7F7" d="M101.2,184.6L101.2,184.6c-3.8,0-6.8-3.1-6.8-6.8v0c0-3.8,3.1-6.8,6.8-6.8h0c3.8,0,6.8,3.1,6.8,6.8v0
	C108,181.5,105,184.6,101.2,184.6z"/>
</svg>
