<?xml version="1.0" encoding="utf-8"?>
<!-- Generator: Adobe Illustrator 20.1.0, SVG Export Plug-In . SVG Version: 6.00 Build 0)  -->
<svg version="1.1" id="Layer_1" xmlns="http://www.w3.org/2000/svg" xmlns:xlink="http://www.w3.org/1999/xlink" x="0px" y="0px"
	 width="200px" height="200px" viewBox="0 0 200 200" enable-background="new 0 0 200 200" xml:space="preserve">
<circle cx="99.1" cy="98.9" r="95.9"/>
<path fill="#3C7D9A" d="M120.2,155.3c-11,0.1-21.2,0-29-8.2c-4.6-4.9-8.3-10.6-13-15.3c-2-2.1-5.4-2.8-8.2-4.1
	c-0.3,2.6-1.1,5.2-1,7.7c0.5,10.1,1.3,20.2,1.9,30.4c0,0.6-0.4,1.9-0.7,1.9c-4.7,0.2-9.4,1-13.9,0.2c-2.2-0.4-5.2-3.3-5.8-5.6
	C46,143,42,123.8,37.7,104.6c-2.7-12.1-5.3-24.3-8.4-36.3c-1.4-5.5-3.9-10.7-6.1-16c-2.1-5.2-0.2-8.8,5.1-7.9
	c7.4,1.1,14.7,3.5,21.8,6.1c1.7,0.6,2.9,4.1,3.5,6.5c2.4,9.5,4.5,19.1,6.8,28.7c0.4,1.5,1.2,2.9,2.8,6.4c2.1-6.9,3.4-11.8,5.1-16.6
	c5-13.7,9.4-27.7,15.4-41c6.5-14.4,16.7-12.2,27.6-4.5c1.4,1,1.4,5.7,0.5,8.1c-5.6,17.1-11.6,34-17.4,51c-0.9,2.7-0.7,6.1-2.2,8.3
	c-8.3,12.1-3.2,20.2,6.2,29c7.9,7.3,13.8,16.8,20.5,25.4C119.5,152.4,119.6,153.4,120.2,155.3z"/>
<path fill="#C8D6E0" d="M170.9,49c-2.8-3.2-7.1-5.4-13.1-5.8c-30.9-2.4-57.3,6.6-77.4,31c-14,17-13,19.2,8.7,23.7
	c2.5,0.5,5.1,0.3,7.7,0.6c1.3,0.1,3.6,0.1,3.9,0.8c3.6,8.8,7.6,17.5,10.1,26.7c0.9,3-2.4,7.1-3.1,10.8c-0.4,2.2,0.7,6.7,0.9,6.7
	c12.3-0.8,12.6,8.7,14,16.7c1.5,7.9,6.7,7.5,12.5,6.6c6.4-1,7-5,5.2-10.2c-0.9-2.7-1.3-5.7-2.5-8.3c-5.8-12.8-4.6-23.3,6-34.1
	c8.6-8.7,15.9-18.6,23.3-28.3C175.1,75.4,178.9,58.1,170.9,49z M130.2,108.1c-1-0.2-2-0.5-3-0.7c-1.3-5.8-2.6-11.6-3.9-17.4
	c-1.1-4.6-4.8-10.9-3.1-13.2c4.2-5.5,10.5-10,16.9-13.2c5.7-2.8,12.6-3.2,20.5-5C152.2,78.4,141.3,93.3,130.2,108.1z"/>
<g>
</g>
<g>
</g>
<g>
</g>
<g>
</g>
<g>
</g>
<g>
</g>
<g>
</g>
<g>
</g>
<g>
</g>
<g>
</g>
<g>
</g>
<g>
</g>
<g>
</g>
<g>
</g>
<g>
</g>
</svg>
