<?xml version="1.0" encoding="utf-8"?>
<!-- Generator: Adobe Illustrator 20.1.0, SVG Export Plug-In . SVG Version: 6.00 Build 0)  -->
<svg version="1.1" id="Layer_1" xmlns="http://www.w3.org/2000/svg" xmlns:xlink="http://www.w3.org/1999/xlink" x="0px" y="0px"
	 width="200px" height="200px" viewBox="0 0 200 200" enable-background="new 0 0 200 200" xml:space="preserve">
<circle cx="99.8" cy="99.8" r="98.2"/>
<polygon fill="#C6D8E2" points="74,31 74,59.6 53,33.4 53,31 "/>
<polygon fill="#C6D8E2" points="74,93.4 74,106.1 73.3,106.8 53,132.9 53,66.9 "/>
<polygon fill="#9797A0" points="74,59.6 74,93.4 53,66.9 53,33.4 "/>
<polygon fill="#9797A0" points="74,106.1 74,140.5 73.3,141.3 53,168 53,132.9 73.3,106.8 "/>
<polygon fill="#C6D8E2" points="158.6,169 132.7,169 95.1,120.5 92.3,116.7 105,99.7 107.6,103.3 "/>
<polygon fill="#C6D8E2" points="156.7,31 105,99.8 105,99.7 92,83.1 92.1,83.2 132.4,31 "/>
<line fill="none" x1="53.6" y1="132.9" x2="53.4" y2="133.3"/>
<polyline fill="#9797A0" points="92,83 105,99.6 92.3,116.7 78.7,99.7 "/>
<polygon fill="#C6D8E2" points="74,140.5 74,169 53,169 53,168 73.3,141.3 "/>
<line fill="none" x1="53.6" y1="168" x2="53.4" y2="168.4"/>
<polygon fill="#C6D8E2" points="92.2,116.5 74,140.5 74,106.1 79,99.7 "/>
<g>
</g>
<g>
</g>
<g>
</g>
<g>
</g>
<g>
</g>
<g>
</g>
<g>
</g>
<g>
</g>
<g>
</g>
<g>
</g>
<g>
</g>
<g>
</g>
<g>
</g>
<g>
</g>
<g>
</g>
</svg>
