<?xml version="1.0" encoding="utf-8"?>
<!-- Generator: Adobe Illustrator 20.1.0, SVG Export Plug-In . SVG Version: 6.00 Build 0)  -->
<svg version="1.1" id="Layer_1" xmlns="http://www.w3.org/2000/svg" xmlns:xlink="http://www.w3.org/1999/xlink" x="0px" y="0px"
	 width="100px" height="100px" viewBox="0 0 100 100" enable-background="new 0 0 100 100" xml:space="preserve">
<polygon fill="#4A4A4F" points="31,5 31,23.2 17,6.1 17,5 "/>
<polygon fill="#4A4A4F" points="31,45.4 31,53.8 30.4,54.2 17,71.3 17,28 "/>
<polygon fill="#9797A0" points="31,23.2 31,45.4 17,28 17,6.1 "/>
<polygon fill="#9797A0" points="31,53.8 31,76.3 30.4,76.8 17,94.4 17,71.3 30.4,54.2 "/>
<polygon fill="#4A4A4F" points="86.6,95 69.6,95 45,63.2 43.1,60.7 51.4,49.5 53.1,51.9 "/>
<polygon fill="#4A4A4F" points="85.3,5 51.4,49.8 51.4,49.7 42.9,38.7 42.9,39 69.4,5 "/>
<line fill="none" x1="17.7" y1="71.3" x2="17.6" y2="71.6"/>
<polyline fill="#9797A0" points="42.9,38.6 51.4,49.5 43.1,60.7 34.2,49.6 "/>
<polygon fill="#4A4A4F" points="31,76.3 31,95 17,95 17,94.4 30.4,76.8 "/>
<line fill="none" x1="17.7" y1="94.4" x2="17.6" y2="94.6"/>
<polygon fill="#4A4A4F" points="43,60.6 31,76.3 31,53.8 34.3,49.6 "/>
<g>
</g>
<g>
</g>
<g>
</g>
<g>
</g>
<g>
</g>
<g>
</g>
<g>
</g>
<g>
</g>
<g>
</g>
<g>
</g>
<g>
</g>
<g>
</g>
<g>
</g>
<g>
</g>
<g>
</g>
</svg>
