<?xml version="1.0" encoding="utf-8"?>
<!-- Generator: Adobe Illustrator 20.1.0, SVG Export Plug-In . SVG Version: 6.00 Build 0)  -->
<svg version="1.1" id="Layer_1" xmlns="http://www.w3.org/2000/svg" xmlns:xlink="http://www.w3.org/1999/xlink" x="0px" y="0px"
	 width="200px" height="200px" viewBox="0 0 200 200" enable-background="new 0 0 200 200" xml:space="preserve">
<polygon fill="#4A4A4F" points="59,11 59,47.8 32,14.1 32,11 "/>
<polygon fill="#4A4A4F" points="59,91.5 59,107.9 58.1,108.8 32,142.5 32,57.3 "/>
<polygon fill="#9797A0" points="59,47.8 59,91.5 32,57.3 32,14.1 "/>
<polygon fill="#9797A0" points="59,107.9 59,152.2 58.1,153.2 32,187.8 32,142.5 58.1,108.8 "/>
<polygon fill="#4A4A4F" points="168.6,189 135.2,189 86.7,126.4 83.1,121.5 99.4,99.6 102.8,104.3 "/>
<polygon fill="#4A4A4F" points="166.1,11 99.4,99.7 99.4,99.6 82.7,78.2 82.8,78.4 134.8,11 "/>
<line fill="none" x1="33.2" y1="142.5" x2="32.9" y2="142.9"/>
<polyline fill="#9797A0" points="82.7,78.1 99.4,99.5 83.1,121.5 65.5,99.6 "/>
<polygon fill="#4A4A4F" points="59,152.2 59,189 32,189 32,187.8 58.1,153.2 "/>
<line fill="none" x1="33.2" y1="187.8" x2="32.9" y2="188.2"/>
<polygon fill="#4A4A4F" points="82.7,121.3 59,152.2 59,107.9 65.6,99.6 "/>
<g>
</g>
<g>
</g>
<g>
</g>
<g>
</g>
<g>
</g>
<g>
</g>
<g>
</g>
<g>
</g>
<g>
</g>
<g>
</g>
<g>
</g>
<g>
</g>
<g>
</g>
<g>
</g>
<g>
</g>
</svg>
