<?xml version="1.0" encoding="utf-8"?>
<!-- Generator: Adobe Illustrator 20.1.0, SVG Export Plug-In . SVG Version: 6.00 Build 0)  -->
<svg version="1.1" id="Layer_1" xmlns="http://www.w3.org/2000/svg" xmlns:xlink="http://www.w3.org/1999/xlink" x="0px" y="0px"
	 width="200px" height="200px" viewBox="0 0 200 200" enable-background="new 0 0 200 200" xml:space="preserve">
<rect x="-9" y="-9" fill="#FFFFFF" width="218" height="218"/>
<path fill="#404EA1" d="M105.9,122.4H79.7c-12.8,0-23.3-10.4-23.3-23.3V49.6h72.8v49.5C129.1,112,118.7,122.4,105.9,122.4z"/>
<path fill="none" stroke="#FFFFFF" stroke-width="0.3753" stroke-miterlimit="10" stroke-dasharray="1.2113,1.2112" d="M102.5,116.7
	H80.3c-10.8,0-19.6-8.8-19.6-19.6V55.3h61.4v41.8C122.1,107.9,113.3,116.7,102.5,116.7z"/>
<path fill="none" stroke="#FFFFFF" stroke-miterlimit="10" stroke-dasharray="1.2113,1.2112" d="M99.5,89.7
	c-1.9,5.6-8.8,13.2-14.5,13.1l0-0.2l6.8-20.3l-6.7-2.2l-7.1,21.1c-4.7-3.3-5.5-13.4-3.6-19.1c1.9-5.7,7.3-8.7,12.9-8.5l0.2,0h0
	l0-0.7l2.1-6.6l1.5-4.7l3.6-10.5l0.6-1.6h7.7l-8.7,25.4C99.3,78.2,101.4,83.9,99.5,89.7z"/>
<path fill="#EC6E24" stroke="#EC6E24" stroke-width="2" stroke-miterlimit="10" d="M118.6,31.3c-1.9,5.6-7.2,9.4-12.8,9.3l-2.7,8.3
	h-7.7l3.4-10.5c-4.9-3.2-7.3-9.6-5.4-15.5c1.9-5.6,8.8-13.3,14.5-13.2c0.1,0-6.9,20.6-6.9,20.6l6.9,2.3l5.2-15.4l1.7-5.1l0-0.1
	c0.1,0,0.1,0,0.2,0.1C119.7,15.5,120.5,25.6,118.6,31.3z"/>
<path fill="#404EA1" d="M25.9,159c0,1.3-0.6,2.1-2.1,2.1c-1.5,0-2.1-0.7-2.1-2.1v-29.9h13.6c1.9,0,3.2,0.3,4.7,1.7
	c1.8,1.6,1.9,3.2,1.9,5.4v5.6c0,2.1-0.2,3.6-1.7,5.2c-1.6,1.8-3.3,2-5.5,2h-9V159z M25.9,144.9H35c2.4,0,3-0.6,3-3v-5.7
	c0-2.3-0.5-3-3-3h-9.1V144.9z"/>
<path fill="#404EA1" d="M63.9,139.7c0.8,1.6,1.1,2.8,1.1,4.6c0,2-0.5,3.2-1.4,4.9l-3.8,7.5c-1,2-2.6,3.4-5,3.4c-2.4,0-4-1.4-5-3.4
	l-3.8-7.5c-0.8-1.7-1.4-2.9-1.4-4.9c0-1.8,0.3-3,1.1-4.6l4.1-8.2c1-1.9,2.7-3.4,5-3.4c2.3,0,4,1.4,5,3.4L63.9,139.7z M56.2,133.5
	c-0.3-0.7-0.5-1.2-1.4-1.2c-0.9,0-1.1,0.6-1.4,1.2l-3.7,7.4c-0.6,1.2-0.9,2-0.9,3.3c0,1.1,0.2,1.8,0.7,2.7l3.9,7.8
	c0.3,0.6,0.6,1.2,1.4,1.2s1.1-0.7,1.4-1.2l3.9-7.8c0.5-0.9,0.7-1.6,0.7-2.7c0-1.4-0.3-2.1-0.9-3.3L56.2,133.5z"/>
<path fill="#404EA1" d="M107.6,130.2c0-1.3,0.6-2.1,2.1-2.1c1.5,0,2.1,0.7,2.1,2.1v9.4l12.5-10.6c0.5-0.4,1-0.8,1.7-0.8
	c1.2,0,2,1,2,2.1c0,0.7-0.5,1.3-0.9,1.7l-14.1,12.1l14.1,12.1c0.5,0.5,1,1,1,1.8c0,1.1-0.8,2.1-2,2.1c-0.9,0-1.6-0.7-2.2-1.2
	l-12-10.3v9.5c0,1.3-0.6,2.1-2.1,2.1c-1.5,0-2.1-0.7-2.1-2.1V130.2z"/>
<path fill="#404EA1" d="M152.5,156.8c1.1,0,2.1,0.6,2.1,2.1c0,1.5-1,2.1-2.1,2.1h-18.2V129h18.2c1.1,0,2.1,0.6,2.1,2.1
	c0,1.5-1,2.1-2.1,2.1h-14.1v9.8h6c1.1,0,2.1,0.6,2.1,2.1s-1,2.1-2.1,2.1h-6v9.8H152.5z"/>
<path fill="#404EA1" d="M160.6,132.3v1.5c0,1.3-0.6,2.1-2.1,2.1c-1.5,0-2.1-0.7-2.1-2.1v-5.6h20.3v5.6c0,1.3-0.6,2.1-2.1,2.1
	c-1.5,0-2.1-0.7-2.1-2.1v-1.5h-4V158c0,1.3-0.6,2.1-2.1,2.1c-1.5,0-2.1-0.7-2.1-2.1v-25.8H160.6z"/>
<path fill="#EC6E24" d="M98.7,140.5l-20.7,0l0,8.2l19.9-0.7h1l5.6,0.7l0.1,0.2c0,0.1,0.1,0.4,0,0.5c-1.2,4.2-6.2,7.8-11.6,9.9
	c-3.2,1.2-6.5,1.9-9.2,1.9c-7.3,0-13.4-4.8-15.5-11.4l0,0.1c0,0-0.7-2.1-0.7-3.6c0-1.5,0.2-3.3,0.5-3.3h0c1.8-9,8.1-13.2,15.7-13.2
	c2.4,0,5.3,0.1,8.2,1.1c5.7,2,11.3,5.5,12.6,9.9c0,0.1-0.2-0.2-0.2-0.2L98.7,140.5z"/>
<path fill="#404EA1" d="M32.3,167.1h3.6v21c0,0.9-0.4,1.4-1.4,1.4c-1,0-1.4-0.5-1.4-1.4v-17H33l-2.7,4.1v0.5c0,0.9-0.3,1.7-1.4,1.7
	c-1,0-1.4-0.8-1.4-1.7v-0.5l-2.7-4.1h-0.1v17c0,0.9-0.4,1.4-1.4,1.4c-1,0-1.4-0.5-1.4-1.4v-21h3.6l3.5,5.1L32.3,167.1z"/>
<path fill="#404EA1" d="M51.2,186.7c0.7,0,1.4,0.4,1.4,1.4c0,1-0.7,1.4-1.4,1.4H38.4v-22.4h12.8c0.7,0,1.4,0.4,1.4,1.4
	c0,1-0.7,1.4-1.4,1.4h-9.9v6.9h4.2c0.7,0,1.4,0.4,1.4,1.4s-0.7,1.4-1.4,1.4h-4.2v6.9H51.2z"/>
<path fill="#404EA1" d="M86.2,179.8v8.3c0,0.9-0.4,1.4-1.4,1.4c-1,0-1.4-0.5-1.4-1.4v-19.5c0-0.9,0.4-1.4,1.4-1.4
	c1,0,1.4,0.5,1.4,1.4v8.3h8.5v-8.3c0-0.9,0.4-1.4,1.4-1.4c1,0,1.4,0.5,1.4,1.4v19.5c0,0.9-0.4,1.4-1.4,1.4c-1,0-1.4-0.5-1.4-1.4
	v-8.3H86.2z"/>
<path fill="#404EA1" d="M105.7,168.6c0.2-0.8,0.5-1.5,1.5-1.5c1,0,1.3,0.7,1.5,1.5l5.6,19.5c0.2,0.7-0.6,1.4-1.4,1.4
	c-0.9,0-1.4-0.7-1.6-1.4l-1.1-3.5h-6.1l-1.1,3.5c-0.2,0.7-0.7,1.4-1.6,1.4c-0.8,0-1.6-0.7-1.4-1.4L105.7,168.6z M107.2,174
	L107.2,174l-2.3,7.8h4.5L107.2,174z"/>
<path fill="#404EA1" d="M128.5,168.6c0-0.9,0.4-1.4,1.4-1.4c1,0,1.4,0.5,1.4,1.4v21h-3.8l-7.5-17.3v0H120v15.8
	c0,0.9-0.4,1.4-1.4,1.4c-1,0-1.4-0.5-1.4-1.4v-21h3.8l7.5,17.5h0h0.1L128.5,168.6z"/>
<path fill="#404EA1" d="M143.6,186.7h4.2c0.7,0,1.4,0.4,1.4,1.4c0,1-0.7,1.4-1.4,1.4h-11.3c-0.7,0-1.4-0.4-1.4-1.4
	c0-1,0.7-1.4,1.4-1.4h4.2V170h-4.2c-0.7,0-1.4-0.4-1.4-1.4c0-1,0.7-1.4,1.4-1.4h11.3c0.7,0,1.4,0.4,1.4,1.4c0,1-0.7,1.4-1.4,1.4
	h-4.2V186.7z"/>
<path fill="#EC6E24" d="M75.9,174.8l-15.9,0l0,6.5l15.3-0.4H76l4.3,0.3l0.1,0.1c0,0.1,0.1,0.3,0,0.4c-1,3.3-4.8,6-8.9,7.5
	c-2.4,0.9-5,1.5-7.1,1.5c-5.6,0-10.3-3.7-11.9-8.7l0,0c0,0-0.6-2-0.6-3.2c0-1.1,0.1-2.9,0.3-2.9h0c1.4-5,6.2-9.8,12.1-9.8
	c1.9,0,4.1,0.3,6.3,1c4.4,1.5,8.7,4.3,9.7,7.7c0,0.1-0.1-0.1-0.1-0.1L75.9,174.8z"/>
<path fill="#EC6E24" d="M175,174.8l-15.9,0l0,6.5l15.3-0.4h0.7l4.3,0.3l0.1,0.1c0,0.1,0.1,0.3,0,0.4c-1,3.3-4.8,6-8.9,7.5
	c-2.4,0.9-5,1.5-7.1,1.5c-5.6,0-10.3-3.7-11.9-8.7l0,0c0,0-0.6-2-0.6-3.2c0-1.1,0.1-2.9,0.3-2.9h0c1.4-5,6.2-9.8,12.1-9.8
	c1.9,0,4.1,0.3,6.3,1c4.4,1.5,8.7,4.3,9.7,7.7c0,0.1-0.1-0.1-0.1-0.1L175,174.8z"/>
</svg>
