<svg xmlns="http://www.w3.org/2000/svg" viewBox="0 0 400 300"><defs><style>.a{fill:#ed6e24;opacity:0.6;}.b,.q{fill:none;}.b{stroke:#010101;stroke-miterlimit:10;stroke-width:2.92px;}.c{font-size:9.74px;fill:#231f20;font-family:MyriadPro-Bold, Myriad Pro;font-weight:700;}.d{letter-spacing:-0.01em;}.e{letter-spacing:0.01em;}.f{letter-spacing:-0.01em;}.g{letter-spacing:0em;}.h{letter-spacing:-0.01em;}.i{letter-spacing:0.02em;}.j{letter-spacing:0.02em;}.k{letter-spacing:0em;}.l{letter-spacing:-0.01em;}.m{letter-spacing:0.01em;}.n{letter-spacing:-0.01em;}.o{letter-spacing:-0.01em;}.p{letter-spacing:0.02em;}.q{stroke:#231f20;stroke-linecap:round;stroke-linejoin:round;stroke-width:1.95px;}</style></defs><title>appflow</title><rect class="a" x="62.04" y="34.04" width="56.97" height="99.66" rx="4.89" ry="4.89"/><rect class="a" x="160.6" y="34.04" width="56.97" height="99.66" rx="4.89" ry="4.89"/><rect class="a" x="120.44" y="170.23" width="56.97" height="99.66" rx="4.89" ry="4.89"/><rect class="a" x="222.6" y="170.23" width="56.97" height="99.66" rx="4.89" ry="4.89"/><rect class="a" x="261.21" y="34.43" width="56.97" height="99.66" rx="4.89" ry="4.89"/><rect class="b" x="55.69" y="26.53" width="70.21" height="115.46" rx="5.85" ry="5.85"/><rect class="b" x="154.19" y="26.43" width="70.21" height="115.46" rx="5.85" ry="5.85"/><rect class="b" x="113.81" y="162.22" width="70.21" height="115.46" rx="5.85" ry="5.85"/><rect class="b" x="215.97" y="162.22" width="70.21" height="115.46" rx="5.85" ry="5.85"/><text class="c" transform="translate(73.02 73.72)"><tspan class="d">L</tspan><tspan x="4.89" y="0">oading </tspan><tspan class="e" x="3.1" y="11.69">S</tspan><tspan x="8.43" y="11.69">c</tspan><tspan class="f" x="12.82" y="11.69">r</tspan><tspan x="16.44" y="11.69">een</tspan></text><text class="c" transform="translate(176.39 71.32)"><tspan class="g">H</tspan><tspan x="6.68" y="0">ome </tspan><tspan class="e" x="-1.76" y="11.69">S</tspan><tspan x="3.57" y="11.69">c</tspan><tspan class="f" x="7.96" y="11.69">r</tspan><tspan x="11.59" y="11.69">een</tspan></text><text class="c" transform="translate(135.63 204.29)"><tspan class="h">A</tspan><tspan x="6.33" y="0">le</tspan><tspan class="i" x="14.16" y="0">r</tspan><tspan x="18.06" y="0">t </tspan><tspan class="e" x="-3.85" y="11.69">S</tspan><tspan x="1.48" y="11.69">c</tspan><tspan class="f" x="5.87" y="11.69">r</tspan><tspan x="9.49" y="11.69">een</tspan></text><text class="c" transform="translate(230.6 204.29)"><tspan class="h">A</tspan><tspan x="6.33" y="0">le</tspan><tspan class="j" x="14.16" y="0">r</tspan><tspan x="18.06" y="0">t </tspan><tspan class="k" x="23.61" y="0">I</tspan><tspan x="26.41" y="0">n</tspan><tspan class="l" x="32.12" y="0">f</tspan><tspan x="35.34" y="0">o </tspan><tspan class="m" x="5.81" y="11.69">S</tspan><tspan x="11.14" y="11.69">c</tspan><tspan class="n" x="15.53" y="11.69">r</tspan><tspan x="19.16" y="11.69">een</tspan></text><rect class="b" x="254.59" y="26.53" width="70.21" height="115.46" rx="5.85" ry="5.85"/><text class="c" transform="translate(266.7 68.6)"><tspan class="e">S</tspan><tspan x="5.33" y="0">e</tspan><tspan class="o" x="10.47" y="0">c</tspan><tspan x="14.76" y="0">onda</tspan><tspan class="p" x="37.04" y="0">r</tspan><tspan x="40.92" y="0">y</tspan><tspan class="e" x="8.33" y="11.69">S</tspan><tspan x="13.66" y="11.69">c</tspan><tspan class="f" x="18.06" y="11.69">r</tspan><tspan x="21.68" y="11.69">een</tspan></text><line class="q" x1="147.84" y1="77.47" x2="132.25" y2="77.47"/><polyline class="q" points="142.33 81.8 147.84 77.47 142.63 73.32"/><line class="q" x1="245.92" y1="77.47" x2="230.33" y2="77.47"/><polyline class="q" points="240.41 81.8 245.92 77.47 240.7 73.32"/><line class="q" x1="205.84" y1="213.27" x2="190.25" y2="213.27"/><polyline class="q" points="200.34 217.6 205.84 213.27 200.63 209.12"/></svg>