<?xml version="1.0" encoding="utf-8"?>
<!-- Generator: Adobe Illustrator 20.1.0, SVG Export Plug-In . SVG Version: 6.00 Build 0)  -->
<svg version="1.1" id="Layer_1" xmlns="http://www.w3.org/2000/svg" xmlns:xlink="http://www.w3.org/1999/xlink" x="0px" y="0px"
	 width="600px" height="200px" viewBox="0 0 600 200" enable-background="new 0 0 600 200" xml:space="preserve">
<path fill="#404EA1" d="M138.3,186.4H98c-19.7,0-35.6-16-35.6-35.6V74.9h111.5v75.9C173.9,170.4,157.9,186.4,138.3,186.4z"/>
<path fill="none" stroke="#FFFFFF" stroke-width="0.5752" stroke-miterlimit="10" stroke-dasharray="1.8566,1.8565" d="M133,177.7
	H99.1c-16.6,0-30.1-13.5-30.1-30.1v-64h94.1v64C163.1,164.2,149.7,177.7,133,177.7z"/>
<path fill="none" stroke="#FFFFFF" stroke-width="2" stroke-miterlimit="10" stroke-dasharray="1.8567,1.8565" d="M128.5,136.2
	c-2.9,8.6-13.6,20.2-22.2,20l0-0.3l10.4-31.1l-10.3-3.3l-10.8,32.3c-7.2-5-8.5-20.6-5.6-29.3c2.9-8.7,11.2-13.6,19.8-13.3l0.2-0.2h0
	l0-0.8l3.2-10l2.3-7.1l5.5-15.9l1-2.3H134l-13.3,38.8C128.1,118.9,131.5,127.5,128.5,136.2z"/>
<path fill="#EC6E24" stroke="#EC6E24" stroke-width="3" stroke-miterlimit="10" d="M157.7,46.8c-2.9,8.6-11,14.3-19.6,14.1L134,73.5
	h-11.7l5.2-15.8c-7.5-4.8-11.2-14.6-8.2-23.6c2.9-8.6,13.6-20.3,22.2-20.1c0.2,0-10.6,31.5-10.6,31.5l10.6,3.5l7.9-23.6l2.6-7.8
	l0.1-0.2c0.2,0,0.1,0,0.3,0.1C159.4,22.5,160.6,38.1,157.7,46.8z"/>
<path fill="#404EA1" d="M223.9,98.6c0,2.9-1.2,4.5-4.5,4.5c-3.2,0-4.5-1.6-4.5-4.5v-65h29.6c4.1,0,7.1,0.6,10.3,3.7
	c3.8,3.6,4.2,6.9,4.2,11.7v12.1c0,4.6-0.4,7.8-3.7,11.4c-3.5,3.9-7.1,4.3-12,4.3h-19.5V98.6z M223.9,67.9h19.8
	c5.3,0,6.4-1.3,6.4-6.4V49c0-5.1-1.2-6.4-6.4-6.4h-19.8V67.9z"/>
<path fill="#404EA1" d="M306.6,56.6c1.7,3.5,2.3,6.1,2.3,9.9c0,4.3-1.2,7-2.9,10.6l-8.2,16.4c-2.1,4.3-5.7,7.4-10.9,7.4
	c-5.2,0-8.7-3.1-10.9-7.4l-8.2-16.4c-1.8-3.7-2.9-6.3-2.9-10.6c0-3.8,0.6-6.4,2.3-9.9l8.9-17.8c2.1-4.2,5.8-7.3,10.8-7.3
	c5,0,8.7,3.1,10.8,7.3L306.6,56.6z M290,43.1c-0.7-1.4-1.2-2.7-3-2.7c-1.9,0-2.3,1.3-3,2.7l-8,16.2c-1.3,2.6-2.1,4.3-2.1,7.2
	c0,2.3,0.5,3.9,1.5,5.9l8.6,17c0.6,1.2,1.2,2.7,3,2.7c1.8,0,2.4-1.4,3-2.7l8.6-17c1-2,1.5-3.6,1.5-5.9c0-2.9-0.7-4.6-2.1-7.2
	L290,43.1z"/>
<path fill="#404EA1" d="M401.7,36c0-2.9,1.2-4.5,4.5-4.5c3.2,0,4.5,1.6,4.5,4.5v20.5l27.2-23.1c1.1-0.9,2.2-1.8,3.7-1.8
	c2.6,0,4.3,2.1,4.3,4.6c0,1.5-1,2.8-2.1,3.7L413,66.3l30.6,26.2c1.2,1,2.2,2.2,2.2,3.8c0,2.5-1.7,4.6-4.3,4.6
	c-1.9,0-3.4-1.6-4.8-2.7l-26.1-22.4v20.6c0,2.9-1.2,4.5-4.5,4.5c-3.2,0-4.5-1.6-4.5-4.5V36z"/>
<path fill="#404EA1" d="M499.5,93.7c2.3,0,4.5,1.2,4.5,4.5c0,3.2-2.1,4.5-4.5,4.5h-39.6V33.2h39.6c2.3,0,4.5,1.2,4.5,4.5
	c0,3.2-2.1,4.5-4.5,4.5h-30.7v21.3h13.1c2.3,0,4.5,1.3,4.5,4.5s-2.1,4.5-4.5,4.5h-13.1v21.3H499.5z"/>
<path fill="#404EA1" d="M517.2,40.5v3.2c0,2.9-1.2,4.5-4.5,4.5c-3.2,0-4.5-1.6-4.5-4.5V31.5h44.1v12.1c0,2.9-1.2,4.5-4.5,4.5
	c-3.2,0-4.5-1.6-4.5-4.5v-3.2h-8.7v56.1c0,2.9-1.2,4.5-4.5,4.5c-3.2,0-4.5-1.6-4.5-4.5V40.5H517.2z"/>
<path fill="#EC6E24" d="M382.4,58.2l-45,0l0,17.6l43.3-1.8h2.1l12.3,1.8l0.2,0.7c0.1,0.3,0.1,1,0.1,1.2
	c-2.7,9.2-13.6,17.1-25.3,21.5c-6.9,2.6-14.1,4.2-20,4.2c-15.8,0-29.2-10.4-33.7-24.7l0,0.1c0,0-1.6-4.3-1.6-7.8c0-3.2,0.3-7,1-7h0
	c3.8-20,17.7-28.9,34.2-28.9c5.3,0,11.6,0.1,17.9,2.3c12.4,4.4,24.5,11.9,27.5,21.5c0.1,0.3-0.4-0.4-0.4-0.4L382.4,58.2z"/>
<path fill="#404EA1" d="M237.8,116.3h7.8V162c0,2-0.9,3.1-3.1,3.1c-2.3,0-3.1-1.1-3.1-3.1v-37h-0.1l-6,8.8v1c0,1.9-0.8,3.8-3.1,3.8
	c-2.3,0-3.1-1.8-3.1-3.8v-1l-6-8.8h-0.1v37c0,2-0.9,3.1-3.1,3.1c-2.3,0-3.1-1.1-3.1-3.1v-45.6h7.8l7.7,11L237.8,116.3z"/>
<path fill="#404EA1" d="M279,158.8c1.6,0,3.1,0.9,3.1,3.1c0,2.3-1.5,3.1-3.1,3.1h-27.8v-48.8H279c1.6,0,3.1,0.9,3.1,3.1
	c0,2.3-1.5,3.1-3.1,3.1h-21.6v15h9.2c1.6,0,3.1,0.9,3.1,3.1s-1.5,3.1-3.1,3.1h-9.2v15H279z"/>
<path fill="#404EA1" d="M355.1,143.8V162c0,2-0.9,3.1-3.1,3.1c-2.3,0-3.1-1.1-3.1-3.1v-42.5c0-2,0.9-3.1,3.1-3.1
	c2.3,0,3.1,1.1,3.1,3.1v18.1h18.4v-18.1c0-2,0.9-3.1,3.1-3.1c2.3,0,3.1,1.1,3.1,3.1V162c0,2-0.9,3.1-3.1,3.1c-2.3,0-3.1-1.1-3.1-3.1
	v-18.1H355.1z"/>
<path fill="#404EA1" d="M397.7,119.5c0.5-1.7,1.2-3.2,3.2-3.2c2.1,0,2.8,1.6,3.3,3.2l12.1,42.5c0.4,1.5-1.3,3.1-3,3.1
	c-1.9,0-2.9-1.6-3.4-3.1l-2.3-7.5h-13.4l-2.4,7.5c-0.4,1.5-1.4,3.1-3.4,3.1c-1.8,0-3.4-1.6-3-3.1L397.7,119.5z M400.9,131.2h-0.1
	l-4.9,17h9.8L400.9,131.2z"/>
<path fill="#404EA1" d="M447.3,119.5c0-2,0.9-3.1,3.1-3.1c2.3,0,3.1,1.1,3.1,3.1v45.7h-8.3l-16.4-37.6v-0.1h-0.1V162
	c0,2-0.9,3.1-3.1,3.1c-2.3,0-3.1-1.1-3.1-3.1v-45.6h8.3l16.4,38.1h-0.1h0.1L447.3,119.5z"/>
<path fill="#404EA1" d="M480.1,158.8h9.2c1.6,0,3.1,0.9,3.1,3.1c0,2.3-1.5,3.1-3.1,3.1h-24.7c-1.6,0-3.1-0.9-3.1-3.1
	c0-2.3,1.5-3.1,3.1-3.1h9.2v-36.2h-9.2c-1.6,0-3.1-0.9-3.1-3.1c0-2.3,1.5-3.1,3.1-3.1h24.7c1.6,0,3.1,0.9,3.1,3.1
	c0,2.3-1.5,3.1-3.1,3.1h-9.2V158.8z"/>
<path fill="#EC6E24" d="M332.7,133.1l-34.6,0l0,13.9l33.3-1h1.6l9.4,1l0.2,0.3c0.1,0.2,0.1,0.6,0.1,0.8
	c-2.1,7.1-10.4,13.1-19.4,16.5c-5.3,2-10.8,3.2-15.4,3.2c-12.1,0-22.4-8-25.9-19l0,0.1c0,0-1.2-4.1-1.2-6.8c0-2.4,0.3-6.1,0.8-6.1h0
	c2.9-12,13.6-21.4,26.3-21.5c4.1,0,8.9,0.5,13.7,2.2c9.5,3.4,18.8,9.4,21.1,16.7c0.1,0.2-0.3-0.2-0.3-0.2L332.7,133.1z"/>
<path fill="#EC6E24" d="M548.5,133.1l-34.6,0l0,13.9l33.3-1h1.6l9.4,1l0.2,0.3c0.1,0.2,0.1,0.6,0.1,0.8
	c-2.1,7.1-10.4,13.1-19.4,16.5c-5.3,2-10.8,3.2-15.4,3.2c-12.1,0-22.4-8-25.9-19l0,0.1c0,0-1.2-4.1-1.2-6.8c0-2.4,0.3-6.1,0.8-6.1h0
	c2.9-12,13.6-21.4,26.3-21.5c4.1,0,8.9,0.5,13.7,2.2c9.5,3.4,18.8,9.4,21.1,16.7c0.1,0.2-0.3-0.2-0.3-0.2L548.5,133.1z"/>
</svg>
